<svg width="24" height="24" viewBox="0 0 24 24" fill="none" xmlns="http://www.w3.org/2000/svg">
<path fill-rule="evenodd" clip-rule="evenodd" d="M2.36707 0C1.05977 0 0 1.05977 0 2.36707V21.6344C0 22.9417 1.05978 24.0015 2.36708 24.0015H21.6292C22.9365 24.0015 23.9963 22.9417 23.9963 21.6344V2.36707C23.9963 1.05977 22.9365 0 21.6292 0H2.36707ZM15.4984 7.9386C15.4984 9.8705 13.9323 11.4366 12.0004 11.4366C10.0685 11.4366 8.50239 9.8705 8.50239 7.9386C8.50239 6.0067 10.0685 4.44059 12.0004 4.44059C13.9323 4.44059 15.4984 6.0067 15.4984 7.9386ZM7.53871 13.3467L4.85078 17.5053C4.2781 18.3913 4.9141 19.5596 5.96907 19.5596H18.0307C19.0857 19.5596 19.7217 18.3913 19.149 17.5053L16.461 13.3467C16.2157 12.9672 15.7947 12.738 15.3428 12.738H8.65699C8.20509 12.738 7.78402 12.9672 7.53871 13.3467Z" fill="#12086F"/>
</svg>
