<svg width="64" height="62" viewBox="0 0 64 62" fill="none" xmlns="http://www.w3.org/2000/svg">
<path d="M0 31C0 13.8792 13.8792 0 31 0H33C50.1208 0 64 13.8792 64 31C64 48.1208 50.1208 62 33 62H31C13.8792 62 0 48.1208 0 31Z" fill="url(#paint0_linear_8356_6270)"/>
<path d="M32.0013 44.3327C39.3651 44.3327 45.3346 38.3631 45.3346 30.9993C45.3346 23.6356 39.3651 17.666 32.0013 17.666C24.6375 17.666 18.668 23.6356 18.668 30.9993C18.668 38.3631 24.6375 44.3327 32.0013 44.3327Z" stroke="white" stroke-width="2.66667" stroke-linecap="round" stroke-linejoin="round"/>
<path d="M32 25.666V30.9993" stroke="white" stroke-width="2.66667" stroke-linecap="round" stroke-linejoin="round"/>
<path d="M32 36.334H32.0133" stroke="white" stroke-width="2.66667" stroke-linecap="round" stroke-linejoin="round"/>
<defs>
<linearGradient id="paint0_linear_8356_6270" x1="0" y1="0" x2="61.9688" y2="63.9678" gradientUnits="userSpaceOnUse">
<stop stop-color="#F0B100"/>
<stop offset="1" stop-color="#D08700"/>
</linearGradient>
</defs>
</svg>
